<svg xmlns="http://www.w3.org/2000/svg" width="581" height="68" viewBox="0 0 581 68"><path fill="#0b0b15" d="M13.30 5.00L46.50 5.00Q46.80 5.50 47.10 6.35Q47.40 7.20 47.40 8.20L47.40 8.20Q47.40 9.90 46.60 10.90Q45.80 11.90 44.30 11.90L44.30 11.90L17.10 11.90L17.10 32.70L43 32.70Q43.30 33.20 43.60 34.05Q43.90 34.90 43.90 35.90L43.90 35.90Q43.90 37.60 43.10 38.60Q42.30 39.60 40.80 39.60L40.80 39.60L17.10 39.60L17.10 65.70Q16.60 65.90 15.55 66.10Q14.50 66.30 13.40 66.30L13.40 66.30Q8.90 66.30 8.90 62.70L8.90 62.70L8.90 9.40Q8.90 7.40 10.10 6.20Q11.30 5.00 13.30 5.00L13.30 5.00ZM102.10 42.70L102.10 42.70Q102.10 48.30 100.50 52.80Q98.90 57.30 95.95 60.50Q93 63.70 88.80 65.40Q84.60 67.10 79.40 67.10L79.40 67.10Q74.20 67.10 70 65.40Q65.80 63.70 62.80 60.50Q59.80 57.30 58.20 52.80Q56.60 48.30 56.60 42.70L56.60 42.70Q56.60 37.10 58.25 32.60Q59.90 28.10 62.90 24.90Q65.90 21.70 70.10 20.00Q74.30 18.30 79.40 18.30L79.40 18.30Q84.50 18.30 88.70 20.00Q92.90 21.70 95.85 24.90Q98.80 28.10 100.45 32.60Q102.10 37.10 102.10 42.70ZM79.40 24.90L79.40 24.90Q72.60 24.90 68.70 29.60Q64.80 34.30 64.80 42.70L64.80 42.70Q64.80 51.20 68.65 55.85Q72.50 60.50 79.40 60.50L79.40 60.50Q86.30 60.50 90.10 55.80Q93.90 51.10 93.90 42.70L93.90 42.70Q93.90 34.30 90.05 29.60Q86.20 24.90 79.40 24.90ZM123.30 65.60L123.30 65.60Q122.80 65.80 121.80 66.05Q120.80 66.30 119.60 66.30L119.60 66.30Q115.30 66.30 115.30 62.70L115.30 62.70L115.30 1Q115.80 0.80 116.85 0.55Q117.90 0.30 119 0.30L119 0.30Q123.30 0.30 123.30 3.90L123.30 3.90L123.30 65.60ZM155.60 60.60L155.60 60.60Q159.80 60.60 162.55 59.75Q165.30 58.90 166.50 58.10L166.50 58.10L166.50 43.60L154.10 44.90Q148.90 45.40 146.40 47.25Q143.90 49.10 143.90 52.70L143.90 52.70Q143.90 56.50 146.80 58.55Q149.70 60.60 155.60 60.60ZM155.50 18.30L155.50 18.30Q164.20 18.30 169.30 22.20Q174.40 26.10 174.40 34.50L174.40 34.50L174.40 58.20Q174.40 60.40 173.55 61.55Q172.70 62.70 171 63.70L171 63.70Q168.60 65.10 164.65 66.15Q160.70 67.20 155.60 67.20L155.60 67.20Q146.20 67.20 141.05 63.50Q135.90 59.80 135.90 52.80L135.90 52.80Q135.90 46.20 140.20 42.85Q144.50 39.50 152.30 38.70L152.30 38.70L166.50 37.30L166.50 34.50Q166.50 29.50 163.50 27.20Q160.50 24.90 155.40 24.90L155.40 24.90Q151.20 24.90 147.50 26.10Q143.80 27.30 140.90 28.80L140.90 28.80Q140.10 28.10 139.45 27.20Q138.80 26.30 138.80 25.20L138.80 25.20Q138.80 23.80 139.50 22.90Q140.20 22.00 141.70 21.20L141.70 21.20Q144.40 19.80 147.90 19.05Q151.40 18.30 155.50 18.30ZM191.80 24.00L191.80 24.00Q191.10 24.20 190.25 24.40Q189.40 24.60 188.50 24.60L188.50 24.60Q185.40 24.60 185.20 21.70L185.20 21.70L184.60 4.30Q185.40 3.80 186.35 3.55Q187.30 3.30 188.60 3.30L188.60 3.30Q192.40 3.30 192.40 7.30L192.40 7.30Q192.40 8.60 192.35 10.70Q192.30 12.80 192.20 15.15Q192.10 17.50 192 19.85Q191.90 22.20 191.80 24.00ZM235.50 53.50L235.50 53.50Q235.50 59.90 230.80 63.50Q226.10 67.10 217.20 67.10L217.20 67.10Q213.40 67.10 210.20 66.45Q207 65.80 204.75 64.75Q202.50 63.70 201.25 62.35Q200 61 200 59.60L200 59.60Q200 58.40 200.65 57.30Q201.30 56.20 202.60 55.40L202.60 55.40Q205.30 57.40 208.90 58.95Q212.50 60.50 217.10 60.50L217.10 60.50Q227.50 60.50 227.50 53.50L227.50 53.50Q227.50 47.80 220.60 46.10L220.60 46.10L212.30 43.90Q206.20 42.30 203.40 39.25Q200.60 36.20 200.60 31.40L200.60 31.40Q200.60 28.80 201.65 26.40Q202.70 24.00 204.90 22.20Q207.10 20.40 210.35 19.35Q213.60 18.30 218 18.30L218 18.30Q225 18.30 229.30 20.35Q233.60 22.40 233.60 25.10L233.60 25.10Q233.60 26.40 232.95 27.40Q232.30 28.40 231.20 28.90L231.20 28.90Q229.40 27.70 226.10 26.30Q222.80 24.90 218.30 24.90L218.30 24.90Q213.80 24.90 211.15 26.60Q208.50 28.30 208.50 31.40L208.50 31.40Q208.50 33.70 210 35.30Q211.50 36.90 215 37.70L215 37.70L221.90 39.40Q228.70 41.10 232.10 44.45Q235.50 47.80 235.50 53.50ZM302.70 63.20L277.20 36.80L277.20 65.70Q276.60 65.90 275.60 66.15Q274.60 66.40 273.40 66.40L273.40 66.40Q269 66.40 269 62.70L269 62.70L269 5.20Q269.50 5.00 270.55 4.75Q271.60 4.50 272.80 4.50L272.80 4.50Q277.20 4.50 277.20 8.20L277.20 8.20L277.20 33.10L304.70 4.60Q307.30 4.70 308.60 5.90Q309.90 7.10 309.90 8.70L309.90 8.70Q309.90 10.00 309.20 11.10Q308.50 12.20 307.20 13.50L307.20 13.50L285.60 34.70Q294.70 43.60 301.35 50.55Q308 57.50 312.80 61.80L312.80 61.80Q312.60 64 311.45 65.25Q310.30 66.50 308.50 66.50L308.50 66.50Q306.80 66.50 305.45 65.55Q304.10 64.60 302.70 63.20L302.70 63.20ZM332.70 22.80L332.70 65.60Q332.20 65.80 331.20 66.05Q330.20 66.30 329.00 66.30L329.00 66.30Q324.70 66.30 324.70 62.70L324.70 62.70L324.70 19.80Q325.20 19.60 326.25 19.35Q327.30 19.10 328.50 19.10L328.50 19.10Q332.70 19.10 332.70 22.80L332.70 22.80ZM323.50 5.00L323.50 5.00Q323.50 2.90 324.95 1.45Q326.40 0 328.70 0L328.70 0Q331.00 0 332.40 1.45Q333.80 2.90 333.80 5.00L333.80 5.00Q333.80 7.10 332.40 8.55Q331.00 10.00 328.70 10.00L328.70 10.00Q326.40 10.00 324.95 8.55Q323.50 7.10 323.50 5.00ZM364.10 67.10L364.10 67.10Q357.10 67.10 352.75 64Q348.40 60.90 348.40 53.70L348.40 53.70L348.40 6.20Q348.90 6.00 349.95 5.75Q351.00 5.50 352.20 5.50L352.20 5.50Q356.40 5.50 356.40 9.10L356.40 9.10L356.40 20.60L372.80 20.60Q373.10 21.10 373.40 21.95Q373.70 22.80 373.70 23.80L373.70 23.80Q373.70 27.20 370.70 27.20L370.70 27.20L356.40 27.20L356.40 53.20Q356.40 57.20 358.65 58.85Q360.90 60.50 365.00 60.50L365.00 60.50Q366.70 60.50 368.80 59.90Q370.90 59.30 372.30 58.50L372.30 58.50Q372.90 59.10 373.40 60Q373.90 60.90 373.90 62.10L373.90 62.10Q373.90 64.30 371.30 65.70Q368.70 67.10 364.10 67.10ZM406.90 25.00L406.90 25.00Q403.50 25.00 400.60 26.15Q397.70 27.30 395.60 29.55Q393.50 31.80 392.30 35.15Q391.10 38.50 391.10 42.80L391.10 42.80Q391.10 51.40 395.40 55.95Q399.70 60.50 406.90 60.50L406.90 60.50Q411.10 60.50 413.90 59.35Q416.70 58.20 418.90 56.70L418.90 56.70Q420.00 57.30 420.70 58.20Q421.40 59.10 421.40 60.40L421.40 60.40Q421.40 61.80 420.30 63Q419.20 64.20 417.25 65.10Q415.30 66 412.65 66.55Q410.00 67.10 406.90 67.10L406.90 67.10Q401.70 67.10 397.30 65.60Q392.90 64.10 389.70 61.10Q386.50 58.10 384.70 53.55Q382.90 49 382.90 42.80L382.90 42.80Q382.90 36.70 384.80 32.15Q386.70 27.60 389.90 24.50Q393.10 21.40 397.45 19.85Q401.80 18.30 406.70 18.30L406.70 18.30Q409.80 18.30 412.45 18.85Q415.10 19.40 417.00 20.40Q418.90 21.40 419.95 22.65Q421.00 23.90 421.00 25.20L421.00 25.20Q421.00 26.40 420.30 27.30Q419.60 28.20 418.50 28.70L418.50 28.70Q416.30 27.20 413.70 26.10Q411.10 25.00 406.90 25.00ZM441.50 65.60L441.50 65.60Q441.00 65.80 440.00 66.05Q439.00 66.30 437.80 66.30L437.80 66.30Q433.50 66.30 433.50 62.70L433.50 62.70L433.50 1Q434.00 0.80 435.05 0.55Q436.10 0.30 437.30 0.30L437.30 0.30Q441.50 0.30 441.50 3.90L441.50 3.90L441.50 21.90Q443.90 20.50 447.15 19.40Q450.40 18.30 454.50 18.30L454.50 18.30Q458.70 18.30 462.15 19.40Q465.60 20.50 468.10 22.75Q470.60 25.00 472.00 28.45Q473.40 31.90 473.40 36.50L473.40 36.50L473.40 65.60Q472.90 65.80 471.85 66.05Q470.80 66.30 469.70 66.30L469.70 66.30Q465.40 66.30 465.40 62.70L465.40 62.70L465.40 36.70Q465.40 30.70 462.10 27.80Q458.80 24.90 453.40 24.90L453.40 24.90Q449.90 24.90 446.85 26.15Q443.80 27.40 441.50 29.20L441.50 29.20L441.50 65.60ZM524.90 43.10L494.10 47.40Q496.80 60.50 511.30 60.50L511.30 60.50Q515.50 60.50 518.90 59.10Q522.30 57.70 524.30 56.10L524.30 56.10Q526.70 57.50 526.70 59.90L526.70 59.90Q526.70 61.30 525.45 62.60Q524.20 63.90 522.05 64.90Q519.90 65.90 517.05 66.50Q514.20 67.10 510.90 67.10L510.90 67.10Q499.30 67.10 492.55 60.80Q485.80 54.50 485.80 42.40L485.80 42.40Q485.80 36.70 487.45 32.25Q489.10 27.80 492.05 24.70Q495.00 21.60 499.10 19.95Q503.20 18.30 508.00 18.30L508.00 18.30Q512.50 18.30 516.30 19.80Q520.10 21.30 522.85 24.05Q525.60 26.80 527.15 30.55Q528.70 34.30 528.70 38.80L528.70 38.80Q528.70 41 527.70 41.95Q526.70 42.90 524.90 43.10L524.90 43.10ZM507.90 24.80L507.90 24.80Q501.80 24.80 497.80 29.05Q493.80 33.30 493.60 41.20L493.60 41.20L521.10 37.40Q520.60 31.90 517.25 28.35Q513.90 24.80 507.90 24.80ZM572.30 35.70L572.30 35.70Q572.30 30.10 569.15 27.50Q566.00 24.90 560.70 24.90L560.70 24.90Q556.70 24.90 553.60 25.90Q550.50 26.90 548.30 28.20L548.30 28.20L548.30 65.60Q547.80 65.80 546.80 66.05Q545.80 66.30 544.60 66.30L544.60 66.30Q540.30 66.30 540.30 62.70L540.30 62.70L540.30 28.60Q540.30 26.50 541.15 25.15Q542.00 23.80 544.10 22.50L544.10 22.50Q546.70 20.90 551.00 19.60Q555.30 18.30 560.70 18.30L560.70 18.30Q569.80 18.30 575.05 22.40Q580.30 26.50 580.30 35.30L580.30 35.30L580.30 65.60Q579.80 65.80 578.75 66.05Q577.70 66.30 576.60 66.30L576.60 66.30Q572.30 66.30 572.30 62.70L572.30 62.70L572.30 35.70Z"></path></svg>